<?xml version="1.0" encoding="UTF-8" standalone="no" ?>
<!DOCTYPE svg PUBLIC "-//W3C//DTD SVG 1.1//EN" "http://www.w3.org/Graphics/SVG/1.1/DTD/svg11.dtd">
<svg xmlns="http://www.w3.org/2000/svg" xmlns:xlink="http://www.w3.org/1999/xlink" version="1.1" width="640" height="480" viewBox="0 0 640 480" xml:space="preserve">
<desc>Created with Fabric.js 3.6.6</desc>
<defs>
</defs>
<g transform="matrix(1.37 0 0 1.37 319.49 220.63)"  >
<g style=""   >
		<g transform="matrix(3.95 0 0 3.95 -180.34 -8.11)" id="svg_5"  >
<path style="stroke: none; stroke-width: 0; stroke-dasharray: none; stroke-linecap: butt; stroke-dashoffset: 0; stroke-linejoin: miter; stroke-miterlimit: 4; fill: rgb(233,50,124); fill-rule: nonzero; opacity: 1;" vector-effect="non-scaling-stroke"  transform=" translate(-345.24, -287.61)" d="m 351.83339 298.44844 l -17.94 -12.375 c -1.818 -1.254 -1.2 -3.86502 1.067 -4.47902 l 19.067 -5.175 c 0.4039 -0.14574 0.8367 -0.19305 1.2626 -0.138 c 0.4258 0.05505 0.8324 0.21087 1.186 0.45453 c 0.3535 0.24366 0.6439 0.56813 0.8469 0.94648 c 0.203 0.37835 0.3129 0.79967 0.3205 1.22899 l -1.13 17.54902 c -0.134 2.083 -2.862 3.242 -4.68 1.988 z" stroke-linecap="round" />
</g>
		<g transform="matrix(3.95 0 0 3.95 -169.68 0.75)" id="svg_5"  >
<path style="stroke: rgb(0,0,0); stroke-width: 0; stroke-dasharray: none; stroke-linecap: butt; stroke-dashoffset: 0; stroke-linejoin: miter; stroke-miterlimit: 4; fill: rgb(29,172,227); fill-rule: nonzero; opacity: 1;" vector-effect="non-scaling-stroke"  transform=" translate(-347.94, -289.85)" d="m 346.14339 301.50344 l -10.56902 -20.66896 c -0.2416 -0.47284 -0.34791 -1.00323 -0.30722 -1.53266 c 0.04069 -0.52943 0.22681 -1.03734 0.53782 -1.46771 c 0.31102 -0.43037 0.73485 -0.76649 1.22476 -0.97129 c 0.48991 -0.2048 1.02686 -0.27032 1.55164 -0.18933 l 19.58702 3.02299 c 0.4509 0.06961 0.8789 0.24526 1.2488 0.51251 c 0.3698 0.26726 0.6709 0.61848 0.8786 1.02479 c 0.2076 0.40631 0.3159 0.8561 0.3158 1.3124 c -0.0001 0.45629 -0.1085 0.90606 -0.3162 1.3123 l -9.023 17.64596 c -0.2423 0.4715 -0.6099 0.8671 -1.0624 1.1432 c -0.4525 0.2762 -0.9723 0.4222 -1.5024 0.4221 c -0.5301 -0.0001 -1.0499 -0.1463 -1.5023 -0.4226 c -0.4524 -0.2764 -0.8198 -0.6721 -1.0619 -1.1437 l 0 0 z" stroke-linecap="round" />
</g>
		<g transform="matrix(3.95 0 0 3.95 -174.48 -4.74)" id="svg_5"  >
<path style="stroke: none; stroke-width: 0; stroke-dasharray: none; stroke-linecap: butt; stroke-dashoffset: 0; stroke-linejoin: miter; stroke-miterlimit: 4; fill: rgb(0,26,73); fill-rule: nonzero; opacity: 1;" vector-effect="non-scaling-stroke"  transform=" translate(-346.72, -288.47)" d="m 357.59539 279.60745 l -9.764 -1.507 l -11.988 3.255 l 4.785 9.36099 l 11.205 7.732 c 0.2472 0.1687 0.5191 0.2979 0.806 0.383 l 4.256 -8.323 l 0.7 -10.90099 z" stroke-linecap="round" />
</g>
		<g transform="matrix(3.95 0 0 3.95 220.43 -30.4)" id="svg_5"  >
<path style="stroke: none; stroke-width: 0; stroke-dasharray: none; stroke-linecap: butt; stroke-dashoffset: 0; stroke-linejoin: miter; stroke-miterlimit: 4; fill: rgb(0,26,73); fill-rule: nonzero; opacity: 1;" vector-effect="non-scaling-stroke"  transform=" translate(-446.58, -281.98)" d="m 446.58461 284.24799 c 1.254 0 2.27 -1.0163 2.27 -2.26999 c 0 -1.25368 -1.016 -2.27 -2.27 -2.27 c -1.254 0 -2.27 1.01632 -2.27 2.27 c 0 1.25369 1.016 2.26999 2.27 2.26999 z" stroke-linecap="round" />
</g>
		<g transform="matrix(3.95 0 0 3.95 35.14 2.32)" style="" id="svg_3"  >
		<text xml:space="preserve" font-family="'Inter'" font-size="21" font-style="normal" font-weight="bold" style="stroke: none; stroke-width: 0; stroke-dasharray: none; stroke-linecap: butt; stroke-dashoffset: 0; stroke-linejoin: miter; stroke-miterlimit: 4; fill: rgb(0,26,73); fill-rule: nonzero; opacity: 1; white-space: pre;" ><tspan x="-33.84" y="6.6" >SkillJet</tspan></text>
</g>
</g>
</g>
</svg>