<?xml version="1.0" encoding="utf-8"?>
<!-- Generator: Adobe Illustrator 26.0.1, SVG Export Plug-In . SVG Version: 6.00 Build 0)  -->
<svg version="1.1" id="logo-12" xmlns="http://www.w3.org/2000/svg" xmlns:xlink="http://www.w3.org/1999/xlink" x="0px" y="0px"
	 viewBox="0 0 138 30" style="enable-background:new 0 0 138 30;" xml:space="preserve">
<style type="text/css">
	.st0{fill:#E9327C;}
	.st1{fill:#1DACE3;}
	.st2{fill:#001A49;}
	.st3{display:none;fill:#001A49;}
</style>
<path class="st0" d="M21,23.8L3,11.4c-1.8-1.3-1.2-3.9,1.1-4.5l19.1-5.2c0.4-0.1,0.8-0.2,1.3-0.1c0.4,0.1,0.8,0.2,1.2,0.5
	C26,2.3,26.3,2.6,26.5,3c0.2,0.4,0.3,0.8,0.3,1.2l-1.1,17.5C25.5,23.9,22.8,25,21,23.8z"/>
<path class="st1" d="M15.3,26.8L4.7,6.1c-0.2-0.5-0.3-1-0.3-1.5s0.2-1,0.5-1.5c0.3-0.4,0.7-0.8,1.2-1C6.7,2,7.2,1.9,7.7,2l19.6,3
	c0.5,0.1,0.9,0.2,1.2,0.5c0.4,0.3,0.7,0.6,0.9,1c0.2,0.4,0.3,0.9,0.3,1.3c0,0.5-0.1,0.9-0.3,1.3l-9,17.6c-0.2,0.5-0.6,0.9-1.1,1.1
	c-0.5,0.3-1,0.4-1.5,0.4c-0.5,0-1-0.1-1.5-0.4C15.9,27.7,15.5,27.3,15.3,26.8L15.3,26.8z"/>
<path class="st2" d="M26.8,4.9L17,3.4L5,6.7L9.8,16L21,23.8c0.2,0.2,0.5,0.3,0.8,0.4l4.3-8.3L26.8,4.9z"/>
<path class="st3" d="M76.2,7.3c0-0.4,0.1-0.7,0.3-1C76.7,6,77,5.8,77.3,5.6c0.3-0.1,0.7-0.2,1.1-0.1c0.4,0.1,0.7,0.2,0.9,0.5
	c0.3,0.3,0.4,0.6,0.5,0.9c0.1,0.4,0,0.7-0.1,1.1c-0.1,0.3-0.4,0.6-0.7,0.8c-0.3,0.2-0.7,0.3-1,0.3c-0.5,0-0.9-0.2-1.3-0.5
	C76.4,8.3,76.2,7.8,76.2,7.3L76.2,7.3z M76.5,10.1h3.1v10.2h-3.1V10.1z"/>
<path class="st3" d="M92.8,15.2c0,0.7-0.1,1.3-0.3,2c-0.2,0.6-0.6,1.2-1,1.7c-0.5,0.5-1,0.9-1.6,1.2c-0.6,0.3-1.3,0.5-1.9,0.5
	c-0.6,0-1.1-0.1-1.7-0.3c-0.5-0.2-1-0.5-1.4-1v5h-3.1V10.1h3.1v1c0.4-0.4,0.9-0.7,1.4-1c0.5-0.2,1.1-0.3,1.7-0.3
	c0.7,0,1.3,0.2,1.9,0.5c0.6,0.3,1.2,0.7,1.6,1.2s0.8,1.1,1,1.7C92.7,13.8,92.8,14.5,92.8,15.2z M89.7,15.2c0-0.5-0.2-0.9-0.4-1.3
	c-0.3-0.4-0.7-0.7-1.1-0.9c-0.4-0.2-0.9-0.2-1.4-0.1c-0.5,0.1-0.9,0.3-1.2,0.7c-0.3,0.3-0.6,0.8-0.6,1.2s0,1,0.1,1.4
	s0.5,0.8,0.9,1.1c0.4,0.3,0.9,0.4,1.3,0.4c0.3,0,0.7,0,1-0.2c0.3-0.1,0.6-0.3,0.8-0.5c0.2-0.2,0.4-0.5,0.5-0.8
	C89.7,15.8,89.7,15.5,89.7,15.2L89.7,15.2z"/>
<path class="st3" d="M102.2,17.2c0,2.3-2,3.3-4.2,3.3c-0.9,0.1-1.8-0.1-2.6-0.5c-0.8-0.4-1.4-1.1-1.8-1.9l2.7-1.5
	c0.1,0.4,0.3,0.7,0.7,0.9c0.3,0.2,0.7,0.3,1.1,0.3c0.7,0,1.1-0.2,1.1-0.6c0-1.1-5-0.5-5-4.1c0-2.2,1.9-3.3,4-3.3
	c0.8,0,1.6,0.2,2.3,0.5c0.7,0.4,1.3,0.9,1.7,1.6l-2.6,1.4c-0.1-0.3-0.3-0.5-0.5-0.7c-0.2-0.2-0.5-0.2-0.8-0.2
	c-0.5,0-0.9,0.2-0.9,0.6C97.2,14.2,102.2,13.4,102.2,17.2z"/>
<path class="st3" d="M113.4,10.1v10.2h-3.1v-1c-0.4,0.4-0.8,0.8-1.3,1c-0.5,0.2-1.1,0.3-1.6,0.3c-2.1,0-3.8-1.5-3.8-4.2v-6.3h3.1
	v5.8c0,0.2,0,0.5,0.1,0.7c0.1,0.2,0.2,0.4,0.4,0.6s0.4,0.3,0.6,0.4c0.2,0.1,0.5,0.1,0.7,0.1c1.1,0,1.9-0.7,1.9-2.1v-5.6H113.4z"/>
<path class="st3" d="M130.9,14v6.3h-3.1v-6c0-1-0.5-1.7-1.5-1.7c-1,0-1.6,0.7-1.6,1.9v5.7h-3.1v-6c0-1-0.5-1.7-1.5-1.7
	c-1,0-1.6,0.7-1.6,1.9v5.7h-3.1V10.1h3.1V11c0.3-0.4,0.7-0.7,1.2-1c0.5-0.2,1-0.3,1.5-0.3c0.5,0,1,0.1,1.5,0.3
	c0.5,0.2,0.9,0.6,1.2,1c0.3-0.5,0.8-0.8,1.3-1.1c0.5-0.2,1.1-0.3,1.7-0.3C129.4,9.8,130.9,11.5,130.9,14z"/>
<path class="st2" d="M133.5,10c1.3,0,2.3-1,2.3-2.3c0-1.3-1-2.3-2.3-2.3s-2.3,1-2.3,2.3C131.2,9,132.3,10,133.5,10z"/>
<path class="st3" d="M34.5,5.4h3.1v14.9h-3.1V5.4z M39.2,15.2c0-1.1,0.3-2.1,0.9-3c0.6-0.9,1.4-1.6,2.4-2c1-0.4,2.1-0.5,3.1-0.3
	c1,0.2,2,0.7,2.8,1.5c0.8,0.8,1.3,1.7,1.5,2.8c0.2,1,0.1,2.1-0.3,3.1s-1.1,1.8-2,2.4c-0.9,0.6-1.9,0.9-3,0.9c-0.7,0-1.4-0.1-2.1-0.4
	c-0.7-0.3-1.3-0.7-1.8-1.2c-0.5-0.5-0.9-1.1-1.2-1.8C39.4,16.6,39.2,15.9,39.2,15.2L39.2,15.2z M47,15.2c0-0.5-0.2-0.9-0.4-1.3
	c-0.3-0.4-0.6-0.7-1.1-0.8c-0.4-0.2-0.9-0.2-1.3-0.1c-0.5,0.1-0.9,0.3-1.2,0.7c-0.3,0.3-0.5,0.7-0.6,1.2c-0.1,0.5,0,0.9,0.1,1.3
	c0.2,0.4,0.5,0.8,0.9,1c0.4,0.3,0.8,0.4,1.3,0.4c0.3,0,0.6,0,0.9-0.2c0.3-0.1,0.6-0.3,0.8-0.5c0.2-0.2,0.4-0.5,0.5-0.8
	C47,15.8,47,15.5,47,15.2L47,15.2z M62.2,10.1v9.7c0,3.4-2.7,4.9-5.4,4.9c-1,0.1-1.9-0.1-2.8-0.6c-0.9-0.4-1.6-1.1-2.1-1.9l2.6-1.5
	c0.2,0.4,0.5,0.8,1,1c0.4,0.2,0.9,0.3,1.4,0.3c0.3,0,0.6,0,0.9-0.1s0.6-0.3,0.8-0.5c0.2-0.2,0.4-0.5,0.5-0.7
	c0.1-0.3,0.2-0.6,0.1-0.9v-0.9c-0.4,0.4-0.8,0.8-1.3,1c-0.5,0.2-1.1,0.3-1.6,0.3c-1.3,0-2.6-0.6-3.6-1.6c-0.9-1-1.5-2.3-1.5-3.6
	c0-1.3,0.5-2.6,1.5-3.6s2.2-1.5,3.6-1.6c0.6,0,1.1,0.1,1.6,0.3c0.5,0.2,1,0.6,1.3,1v-1H62.2z M59.3,15c0-0.5-0.1-1-0.4-1.4
	c-0.3-0.4-0.6-0.8-1.1-1c-0.4-0.2-0.9-0.3-1.4-0.2s-0.9,0.3-1.3,0.7c-0.4,0.3-0.6,0.8-0.7,1.3c-0.1,0.5-0.1,1,0.1,1.4
	c0.2,0.5,0.5,0.8,0.9,1.1c0.4,0.3,0.9,0.4,1.4,0.4c0.3,0,0.6,0,0.9-0.1s0.6-0.3,0.8-0.5c0.2-0.2,0.4-0.5,0.5-0.8
	C59.2,15.6,59.3,15.3,59.3,15L59.3,15z M64,15.2c0-1.1,0.3-2.1,0.9-3c0.6-0.9,1.4-1.6,2.4-2c1-0.4,2.1-0.5,3.1-0.3
	c1,0.2,2,0.7,2.8,1.5c0.8,0.8,1.3,1.7,1.5,2.8c0.2,1,0.1,2.1-0.3,3.1s-1.1,1.8-2,2.4c-0.9,0.6-1.9,0.9-3,0.9c-0.7,0-1.4-0.1-2.1-0.4
	c-0.7-0.3-1.3-0.7-1.8-1.2c-0.5-0.5-0.9-1.1-1.2-1.8C64.1,16.6,64,15.9,64,15.2L64,15.2z M71.7,15.2c0-0.5-0.2-0.9-0.4-1.3
	c-0.3-0.4-0.6-0.7-1.1-0.8c-0.4-0.2-0.9-0.2-1.4-0.1c-0.5,0.1-0.9,0.3-1.2,0.7c-0.3,0.3-0.5,0.7-0.6,1.2c-0.1,0.5,0,0.9,0.1,1.3
	c0.2,0.4,0.5,0.8,0.9,1c0.4,0.3,0.8,0.4,1.3,0.4c0.3,0,0.6,0,0.9-0.2c0.3-0.1,0.6-0.3,0.8-0.5c0.2-0.2,0.4-0.5,0.5-0.8
	C71.7,15.8,71.7,15.5,71.7,15.2L71.7,15.2z"/>
<g>
	<g>
		<path class="st2" d="M37.5,22.1c-0.8,0-1.6-0.1-2.4-0.2c-0.8-0.1-1.5-0.3-2.1-0.6l0.4-2.8c0.8,0.3,1.5,0.6,2.2,0.7
			s1.4,0.3,2.1,0.3c0.7,0,1.3-0.1,1.7-0.4s0.6-0.6,0.6-1.1c0-0.6-0.4-1.1-1.2-1.5l-2.1-1c-1-0.5-1.8-1.1-2.4-1.9
			c-0.6-0.7-0.9-1.6-0.9-2.5c0-1.3,0.4-2.3,1.3-3s2-1,3.6-1c0.9,0,1.7,0.2,2.5,0.5c0.8,0.3,1.5,0.8,2.1,1.4L41,11.1
			c-0.5-0.5-0.9-0.8-1.4-1c-0.5-0.2-0.9-0.4-1.4-0.4c-0.6,0-1.1,0.1-1.4,0.4c-0.3,0.3-0.5,0.6-0.5,1.1c0,0.3,0.1,0.6,0.4,0.9
			c0.2,0.3,0.6,0.5,1,0.8l2,1c1,0.5,1.8,1.2,2.4,1.9s0.8,1.5,0.8,2.3c0,1.3-0.5,2.3-1.4,3C40.5,21.7,39.2,22.1,37.5,22.1z"/>
		<path class="st2" d="M45.6,21.9V6.5h2.8v15.4H45.6z M47.3,18v-2.6h1.2c0.8,0,1.5-0.1,2-0.4c0.5-0.3,0.9-0.7,1.2-1.4
			c0.3-0.6,0.5-1.5,0.7-2.6h2.9c-0.3,2.4-1,4.1-2,5.3c-1,1.2-2.5,1.7-4.3,1.7H47.3z M52.7,21.9l-2.7-5.3l2.5-0.8l3.5,6.1H52.7z"/>
		<path class="st2" d="M57.9,21.9v-2.6h4.2v2.6H57.9z M58.5,13.5V11h6.2v2.6H58.5z M63.2,9.5c-0.5,0-1-0.2-1.3-0.5s-0.5-0.8-0.5-1.3
			s0.2-1,0.5-1.3S62.7,6,63.2,6s1,0.2,1.3,0.5S65,7.2,65,7.7s-0.2,1-0.5,1.3S63.7,9.5,63.2,9.5z M61.9,21.9V11.6h2.8v10.3H61.9z
			 M64.5,21.9v-2.6h3.4v2.6H64.5z"/>
		<path class="st2" d="M69.6,9V6.5h3.3V9H69.6z M76.5,22.1c-1.4,0-2.4-0.4-3-1.1c-0.6-0.8-0.9-2-0.9-3.6V6.5h2.8v10.7
			c0,0.5,0,0.8,0.1,1.1s0.3,0.5,0.6,0.6c0.3,0.1,0.7,0.2,1.2,0.2c0.6,0,1.4-0.1,2.3-0.4l0.3,2.9c-0.6,0.2-1.1,0.3-1.7,0.3
			C77.7,22,77.1,22.1,76.5,22.1z"/>
		<path class="st2" d="M81.9,9V6.5h3.3V9H81.9z M88.8,22.1c-1.4,0-2.4-0.4-3-1.1c-0.6-0.8-0.9-2-0.9-3.6V6.5h2.8v10.7
			c0,0.5,0,0.8,0.1,1.1s0.3,0.5,0.6,0.6c0.3,0.1,0.7,0.2,1.2,0.2c0.6,0,1.4-0.1,2.3-0.4l0.3,2.9c-0.6,0.2-1.1,0.3-1.7,0.3
			C90,22,89.4,22.1,88.8,22.1z"/>
		<path class="st2" d="M99.2,22.1c-1.7,0-2.9-0.5-3.8-1.4c-0.9-0.9-1.3-2.2-1.3-3.8h2.8c0,0.8,0.2,1.5,0.6,1.9
			c0.4,0.5,1,0.7,1.8,0.7c0.8,0,1.4-0.2,1.8-0.7c0.4-0.5,0.6-1.1,0.6-1.9V7.3h2.7v9.6c0,1.6-0.5,2.9-1.4,3.8
			C102.1,21.6,100.9,22.1,99.2,22.1z M98.4,9.8V7.3h4.8v2.5H98.4z"/>
		<path class="st2" d="M112.8,22.1c-1.9,0-3.3-0.5-4.4-1.5c-1-1-1.5-2.4-1.5-4.2c0-1.8,0.4-3.2,1.3-4.1c0.9-1,2.1-1.5,3.7-1.5
			c1.6,0,2.8,0.5,3.6,1.4c0.8,0.9,1.3,2.2,1.3,4c0,0.5,0,1-0.1,1.4h-8v-1.9h5.3c0-0.7-0.2-1.3-0.6-1.7c-0.4-0.4-0.9-0.6-1.6-0.6
			c-0.7,0-1.3,0.3-1.7,0.8c-0.4,0.5-0.6,1.2-0.6,2.2c0,1,0.3,1.8,0.9,2.3c0.6,0.5,1.4,0.8,2.5,0.8c0.5,0,1,0,1.5-0.1
			c0.5-0.1,1-0.1,1.5-0.2l0.3,2.6c-0.7,0.1-1.3,0.2-1.9,0.2C113.7,22,113.2,22.1,112.8,22.1z"/>
		<path class="st2" d="M118.5,13.5V11h10.2v2.6H118.5z M121.1,16.6V7.7h2.8v8.8H121.1z M126.4,22.1c-1.9,0-3.2-0.4-4.1-1.1
			s-1.2-2-1.2-3.6v-1.4h2.8v1.1c0,0.8,0.2,1.4,0.6,1.8c0.4,0.4,1.1,0.6,2.1,0.6c0.3,0,0.7,0,1-0.1c0.4,0,0.8-0.1,1.2-0.1l0.2,2.6
			c-0.5,0.1-0.9,0.1-1.3,0.2C127.4,22,126.9,22.1,126.4,22.1z"/>
	</g>
</g>
</svg>
