<svg width="800" height="600" xmlns="http://www.w3.org/2000/svg">
    <path fill="#E9327C" class="ccompli2" d="m351.833 298.448-17.94-12.375c-1.818-1.254-1.2-3.865 1.067-4.479l19.067-5.175a2.7 2.7 0 0 1 3.616 2.492l-1.13 17.55c-.134 2.082-2.862 3.241-4.68 1.987z"/>
    <path stroke="null" fill="#1DACE3" class="ccompli1" d="m346.143 301.503-10.569-20.669a2.883 2.883 0 0 1 3.007-4.16l19.587 3.022a2.884 2.884 0 0 1 2.127 4.162l-9.023 17.646a2.883 2.883 0 0 1-5.129 0z"/>
    <path fill="#001A49" class="ccustom" d="m357.595 279.607-9.764-1.507-11.988 3.255 4.785 9.361 11.205 7.732c.248.17.52.298.806.383l4.256-8.323.7-10.9zM446.585 284.248a2.27 2.27 0 1 0 0-4.54 2.27 2.27 0 0 0 0 4.54z"/>
    <text font-weight="bold" xml:space="preserve" font-family="'Inter'" font-size="21" stroke-width="0" y="296.331" x="365.39" fill="#001a49">SkillJet</text>
</svg>
