<svg width="800" height="600" xmlns="http://www.w3.org/2000/svg">

 <g>
  <title>Layer 1</title>
  <g id="svg_5">
   <path fill="#E9327C" class="ccompli2" d="m351.83339,298.44844l-17.94,-12.375c-1.818,-1.254 -1.2,-3.86502 1.067,-4.47902l19.067,-5.175c0.4039,-0.14574 0.8367,-0.19305 1.2626,-0.138c0.4258,0.05505 0.8324,0.21087 1.186,0.45453c0.3535,0.24366 0.6439,0.56813 0.8469,0.94648c0.203,0.37835 0.3129,0.79967 0.3205,1.22899l-1.13,17.54902c-0.134,2.083 -2.862,3.242 -4.68,1.988z"/>
   <path stroke="null" fill="#1DACE3" class="ccompli1" d="m346.14339,301.50344l-10.56902,-20.66896c-0.2416,-0.47284 -0.34791,-1.00323 -0.30722,-1.53266c0.04069,-0.52943 0.22681,-1.03734 0.53782,-1.46771c0.31102,-0.43037 0.73485,-0.76649 1.22476,-0.97129c0.48991,-0.2048 1.02686,-0.27032 1.55164,-0.18933l19.58702,3.02299c0.4509,0.06961 0.8789,0.24526 1.2488,0.51251c0.3698,0.26726 0.6709,0.61848 0.8786,1.02479c0.2076,0.40631 0.3159,0.8561 0.3158,1.3124c-0.0001,0.45629 -0.1085,0.90606 -0.3162,1.3123l-9.023,17.64596c-0.2423,0.4715 -0.6099,0.8671 -1.0624,1.1432c-0.4525,0.2762 -0.9723,0.4222 -1.5024,0.4221c-0.5301,-0.0001 -1.0499,-0.1463 -1.5023,-0.4226c-0.4524,-0.2764 -0.8198,-0.6721 -1.0619,-1.1437l0,0z"/>
   <path fill="#001A49" class="ccustom" d="m357.59539,279.60745l-9.764,-1.507l-11.988,3.255l4.785,9.36099l11.205,7.732c0.2472,0.1687 0.5191,0.2979 0.806,0.383l4.256,-8.323l0.7,-10.90099z"/>
   <path fill="#001A49" class="ccustom" d="m446.58461,284.24799c1.254,0 2.27,-1.0163 2.27,-2.26999c0,-1.25368 -1.016,-2.27 -2.27,-2.27c-1.254,0 -2.27,1.01632 -2.27,2.27c0,1.25369 1.016,2.26999 2.27,2.26999z"/>
   <text font-weight="bold" xml:space="preserve" text-anchor="start" font-family="'Inter'" font-size="21" stroke-width="0" id="svg_3" y="296.33111" x="365.39023" fill="#001a49">SkillJet</text>
  </g>
 </g>
</svg>